# xmcd
#
# Track frame offsets:
#	150
#	17382
#	31422
#	51177
#
# Disc length: 881 seconds
#
# Revision: 0
# Processed by: cddbd v1.5PL3 Copyright (c) Steve Scherf et al.
# Submitted via: dBpowerAMP V4.0
#
DISCID=25036f04
DTITLE=Buffy Saint Marie - Big Ones Get Away
DYEAR=1992
DGENRE=Country
TTITLE0=Big Ones Get Away
TTITLE1=Fallen Angels
TTITLE2=Bad End
TTITLE3=Going Home
EXTD=Amazing artist
EXTT0=
EXTT1=
EXTT2=
EXTT3=
PLAYORDER=
